<?xml version="1.0" standalone="no"?><!DOCTYPE svg PUBLIC "-//W3C//DTD SVG 1.1//EN" "http://www.w3.org/Graphics/SVG/1.1/DTD/svg11.dtd"><svg t="1630068742407" class="icon" viewBox="0 0 1042 1024" version="1.1" xmlns="http://www.w3.org/2000/svg" p-id="4353" xmlns:xlink="http://www.w3.org/1999/xlink" width="203.515625" height="200"><defs><style type="text/css"></style></defs><path d="M71.059555 326.396686h901.501812v-159.088555a26.514759 26.514759 0 0 0-26.514759-26.51476h-848.472294a26.514759 26.514759 0 0 0-26.514759 26.51476z m0 53.029518v477.265665a26.514759 26.514759 0 0 0 26.514759 26.51476h848.472294a26.514759 26.514759 0 0 0 26.514759-26.51476v-477.265665z m26.514759-291.662351h848.472294a79.544278 79.544278 0 0 1 79.544278 79.544278v689.383738a79.544278 79.544278 0 0 1-79.544278 79.544278h-848.472294a79.544278 79.544278 0 0 1-79.544278-79.544278v-689.383738a79.544278 79.544278 0 0 1 79.544278-79.544278z m186.929052 534.537545l92.801657 59.923356a26.514759 26.514759 0 1 1-28.901087 44.544795l-127.005697-82.195753a26.514759 26.514759 0 0 1 0-44.544795l127.005697-82.195754a26.514759 26.514759 0 1 1 28.901087 44.544795z m363.782496 59.923356L742.413257 622.301398l-92.801657-59.923356a26.514759 26.514759 0 1 1 28.63594-44.544795l127.270844 82.195754a26.514759 26.514759 0 0 1 0 44.544795l-127.270844 82.195753a26.514759 26.514759 0 1 1-28.63594-44.544795z m-124.619368-180.035215a26.514759 26.514759 0 0 1 49.317452 19.620922l-88.029 222.193682a26.514759 26.514759 0 0 1-34.20404 15.113413 26.514759 26.514759 0 0 1-15.113412-34.469187zM163.861212 193.82289a39.772139 39.772139 0 1 1-39.772139 39.772138 39.772139 39.772139 0 0 1 39.772139-39.772138z m132.573796 0a39.772139 39.772139 0 1 1-39.772139 39.772138 39.772139 39.772139 0 0 1 39.772139-39.772138z m132.573796 0a39.772139 39.772139 0 1 1-39.772139 39.772138 39.772139 39.772139 0 0 1 39.772139-39.772138z" p-id="4354"></path></svg>